<svg width="512" height="512" viewBox="0 0 512 512" fill="none" xmlns="http://www.w3.org/2000/svg">
<rect width="512" height="512" fill="#25191C"/>
<mask id="mask0_1_2" style="mask-type:alpha" maskUnits="userSpaceOnUse" x="71" y="71" width="370" height="370">
<path d="M441 256C441 358.173 358.173 441 256 441C153.827 441 71 358.173 71 256C71 153.827 153.827 71 256 71C358.173 71 441 153.827 441 256Z" fill="#25191C"/>
</mask>
<g mask="url(#mask0_1_2)">
<rect x="72" y="351" width="369" height="56" fill="#6A3E2C"/>
<rect x="72" y="141" width="369" height="28" fill="#4EA2A6"/>
<rect x="120" y="93" width="273" height="28" fill="#F08953"/>
</g>
<path d="M102.21 223.12V299.92C102.21 306.256 104.514 311.632 108.93 316.24C113.538 320.656 118.914 322.96 125.25 322.96C131.778 322.96 137.154 320.656 141.57 316.24C146.178 311.632 148.29 306.256 148.29 299.92V292.24H132.93V299.92C132.93 302.032 132.354 303.76 130.818 305.296C129.282 306.832 127.554 307.6 125.25 307.6C123.138 307.6 121.41 307.024 119.874 305.488C118.338 303.952 117.57 302.032 117.57 299.92V223.12C117.57 220.816 118.146 219.28 119.682 217.744C121.218 216.208 123.138 215.44 125.25 215.44C127.554 215.44 129.09 216.016 130.626 217.552C132.162 219.088 132.93 220.816 132.93 223.12V230.8H148.29V223.12C148.29 216.592 146.178 211.216 141.57 206.8C137.154 202.192 131.778 200.08 125.25 200.08C118.914 200.08 113.538 202.192 108.93 206.8C104.514 211.216 102.21 216.592 102.21 223.12ZM216.22 200.08H200.668L185.692 284.56L183.004 299.92L178.972 322.96H194.524L198.556 299.92H218.332L222.364 322.96H237.916L233.884 299.92L231.196 284.56L216.22 200.08ZM208.54 244.24L215.644 284.56H201.436L208.54 244.24ZM268.672 200.08V322.96H284.032V269.2H291.712H291.904L305.344 322.96H321.28L306.304 263.824C308.608 261.904 310.72 259.408 312.256 255.952C313.984 252.304 314.752 249.04 314.752 246.16V223.12C314.752 216.592 312.64 211.216 308.032 206.8C303.616 202.192 298.24 200.08 291.712 200.08H284.032H268.672ZM284.032 215.44H291.712C294.016 215.44 295.552 216.016 297.088 217.552C298.624 219.088 299.392 220.816 299.392 223.12V246.16C299.392 248.272 298.816 250 297.28 251.536C295.744 253.072 294.016 253.84 291.712 253.84H284.032V215.44ZM389.058 200.08H373.506L358.53 284.56L355.842 299.92L351.81 322.96H367.362L371.394 299.92H391.17L395.202 322.96H410.754L406.722 299.92L404.034 284.56L389.058 200.08ZM381.378 244.24L388.482 284.56H374.274L381.378 244.24Z" fill="url(#paint0_linear_1_2)"/>
<defs>
<linearGradient id="paint0_linear_1_2" x1="256.5" y1="184" x2="256.5" y2="355" gradientUnits="userSpaceOnUse">
<stop stop-color="#C7B48F"/>
<stop offset="1" stop-color="#B1A181"/>
</linearGradient>
</defs>
</svg>
